<svg width="58" height="41" viewBox="0 0 58 41" fill="none" xmlns="http://www.w3.org/2000/svg">
<path d="M31.4378 6.53125H25.4995V11.9304H31.4378V6.53125Z" fill="#099CEC"/>
<path d="M31.4378 13.0176H25.4995V18.3538H31.4378V13.0176Z" fill="#099CEC"/>
<path d="M24.4216 6.53125H18.4834V11.9304H24.4216V6.53125Z" fill="#099CEC"/>
<path d="M38.4633 13.0083H32.5249V18.3447H38.4633V13.0083Z" fill="#099CEC"/>
<path d="M31.4378 0H25.4995V5.45313H31.4378V0Z" fill="#099CEC"/>
<path d="M17.4054 6.53125H11.4673V11.9304H17.4054V6.53125Z" fill="#099CEC"/>
<path d="M24.4216 13.0083H18.4834V18.3447H24.4216V13.0083Z" fill="#099CEC"/>
<path d="M56.305 15.515C55.0112 14.6435 52.0287 14.3291 49.7379 14.7605C49.4415 12.6044 48.2375 10.7268 46.0456 9.03777L44.7879 8.20215L43.9522 9.4599C42.2991 11.9574 41.8501 16.0719 43.62 18.7851C42.8385 19.2073 41.3019 19.7824 39.2717 19.7463H0.219487C-0.562013 24.3102 0.740612 30.2394 4.17249 34.3089C7.50536 38.2528 12.5004 40.2563 19.0315 40.2563C33.172 40.2563 43.6379 33.7433 48.5341 21.9113C50.4567 21.9473 54.6071 21.9204 56.7364 17.8509C56.8711 17.6263 57.3292 16.6649 57.4997 16.3145L56.305 15.515Z" fill="#099CEC"/>
<path d="M10.3982 13.0083H10.3891H4.45996V18.3447H10.3982V13.0083Z" fill="#099CEC"/>
<path d="M17.4054 13.0083H11.4673V18.3447H17.4054V13.0083Z" fill="#099CEC"/>
</svg>
