<svg width="36" height="36" viewBox="0 0 36 36" fill="none" xmlns="http://www.w3.org/2000/svg">
<g id="2993773_git_social media_icon 1" clip-path="url(#clip0_308_98)">
<g id="Group">
<path id="Vector" d="M35.3423 16.3981L35.3408 16.3973L19.5923 0.638535C18.7427 -0.213089 17.2559 -0.212357 16.4092 0.637802L0.657715 16.3981C0.234375 16.8239 0 17.3889 0 17.9892C0 18.5901 0.234375 19.1558 0.65918 19.5809L16.4077 35.3397C16.8325 35.7655 17.3979 36 18 36C18.6021 36 19.1675 35.7655 19.5908 35.3404L35.3408 19.5809C35.7656 19.1558 36 18.5901 36 17.9892C36 17.3889 35.7656 16.8239 35.3423 16.3981Z" fill="#EF473B"/>
<path id="Vector_2" opacity="0.1" d="M35.5216 19.0347L19.6075 34.9584C19.1798 35.3879 18.6084 35.6249 18.0002 35.6249C17.3919 35.6249 16.8205 35.3879 16.3913 34.9577L0.478699 19.0347C0.292755 18.8486 0.150665 18.6322 0.0405273 18.4014C0.122375 18.8453 0.333496 19.2547 0.659332 19.5807L16.4079 35.3395C16.8327 35.7654 17.3981 35.9999 18.0002 35.9999C18.6022 35.9999 19.1676 35.7654 19.591 35.3403L35.341 19.5807C35.6668 19.2547 35.878 18.8453 35.9599 18.4014C35.8497 18.6322 35.7076 18.8486 35.5216 19.0347Z" fill="#010101"/>
<path id="Vector_3" d="M25.4998 14.9998C24.9374 14.9998 24.4168 15.1649 23.9664 15.4353L20.5643 12.0332C20.8346 11.5829 20.9998 11.0623 20.9998 10.4998C20.9998 8.84531 19.6536 7.49985 17.9998 7.49985C17.4449 7.49985 16.9313 7.66153 16.485 7.9252L12.8044 4.24414L11.7441 5.30496L15.4247 8.98593C15.1613 9.43198 14.9998 9.94531 14.9998 10.4998C14.9998 11.8938 15.9598 13.0579 17.2498 13.3933V22.6064C15.9598 22.9418 14.9998 24.1059 14.9998 25.4998C14.9998 27.1544 16.3459 28.4998 17.9998 28.4998C19.6536 28.4998 20.9998 27.1544 20.9998 25.4998C20.9998 24.1059 20.0397 22.9418 18.7498 22.6064V13.3933C19.0149 13.3243 19.2635 13.2195 19.4951 13.085L22.9146 16.5045C22.6578 16.9465 22.4998 17.4528 22.4998 17.9998C22.4998 19.6544 23.8459 20.9998 25.4998 20.9998C27.1536 20.9998 28.4998 19.6544 28.4998 17.9998C28.4998 16.3453 27.1536 14.9998 25.4998 14.9998Z" fill="white"/>
<path id="Vector_4" opacity="0.2" d="M0.657715 16.7731L16.4092 1.0128C17.2559 0.162643 18.7427 0.161911 19.5923 1.01353L35.3408 16.7723L35.3423 16.7731C35.7208 17.1537 35.9377 17.6479 35.9817 18.1767C35.9869 18.1139 36 18.0529 36 17.9892C36 17.3889 35.7656 16.8239 35.3423 16.3981L35.3408 16.3973L19.5923 0.638535C18.7427 -0.213089 17.2559 -0.212357 16.4092 0.637802L0.657715 16.3981C0.234375 16.8239 0 17.3889 0 17.9892C0 18.0528 0.013092 18.1138 0.0183105 18.1766C0.0623474 17.6478 0.279327 17.1536 0.657715 16.7731Z" fill="white"/>
<path id="Vector_5" d="M27.8234 16.1258C28.2399 16.6409 28.5001 17.2875 28.5001 18.0002C28.5001 19.6548 27.1539 21.0002 25.5001 21.0002C23.8463 21.0002 22.5001 19.6548 22.5001 18.0002C22.5001 17.4532 22.6581 16.9469 22.9149 16.5049L19.4955 13.0854C19.2639 13.2199 19.0153 13.3247 18.7501 13.3936V22.6068C20.0401 22.9421 21.0001 24.1062 21.0001 25.5002C21.0001 27.1548 19.6539 28.5002 18.0001 28.5002C17.2329 28.5002 16.5394 28.2022 16.0083 27.7266L21.606 33.3243L33.3104 21.6128L27.8234 16.1258ZM20.5647 12.0335L23.9668 15.4356C24.4171 15.1653 24.9378 15.0002 25.5001 15.0002C26.2128 15.0002 26.8595 15.2605 27.3748 15.6772L20.3583 8.66064L20.3547 8.66367C20.7528 9.17279 21.0001 9.80515 21.0001 10.5002C21.0001 11.0626 20.835 11.5833 20.5647 12.0335Z" fill="url(#paint0_linear_308_98)"/>
<path id="Vector_6" d="M35.3423 16.3981L35.3408 16.3973L19.5923 0.638535C18.7427 -0.213089 17.2559 -0.212357 16.4092 0.637802L0.657715 16.3981C0.234375 16.8239 0 17.3889 0 17.9892C0 18.5901 0.234375 19.1558 0.65918 19.5809L16.4077 35.3397C16.8325 35.7655 17.3979 36 18 36C18.6021 36 19.1675 35.7655 19.5908 35.3404L35.3408 19.5809C35.7656 19.1558 36 18.5901 36 17.9892C36 17.3889 35.7656 16.8239 35.3423 16.3981Z" fill="url(#paint1_linear_308_98)"/>
</g>
</g>
<defs>
<linearGradient id="paint0_linear_308_98" x1="14.504" y1="14.5143" x2="27.46" y2="27.4703" gradientUnits="userSpaceOnUse">
<stop stop-color="#010101" stop-opacity="0.1"/>
<stop offset="1" stop-color="#010101" stop-opacity="0"/>
</linearGradient>
<linearGradient id="paint1_linear_308_98" x1="3.02073" y1="11.0099" x2="32.975" y2="24.9778" gradientUnits="userSpaceOnUse">
<stop stop-color="white" stop-opacity="0.2"/>
<stop offset="1" stop-color="white" stop-opacity="0"/>
</linearGradient>
<clipPath id="clip0_308_98">
<rect width="36" height="36" fill="white"/>
</clipPath>
</defs>
</svg>
