<svg viewBox="0 0 100 100" xml:space="preserve" xmlns="http://www.w3.org/2000/svg" enable-background="new 0 0 100 100"><path d="M32.2 68.5c-.1-.3-.4-.6-.7-.7l-10.4-3c-.3-.1-.7 0-1 .3l-7.4 7.4c-.3.3-.4.6-.3 1l3 10.4c.1.3.4.6.7.7l10.4 3h.3c.3 0 .5-.1.7-.3l7.4-7.4c.3-.3.4-.6.3-1l-3-10.4zm-5.7 16.9-9.3-2.7-2.6-9.3 6.6-6.6 9.3 2.7 2.6 9.3-6.6 6.6z" fill="#614bc3" class="fill-000000"></path><path d="M96 31.4 93 21c-.1-.3-.4-.6-.7-.7-.3-.1-.7 0-1 .3L78.4 33.5l-9.3-2.7-2.7-9.3 13-12.8c.3-.3.3-.6.3-1-.1-.3-.4-.6-.7-.7L68.6 4c-.3-.1-.7 0-1 .3L52.8 19.1c-.3.3-.4.6-.3 1l3.1 11-26 26c-7-2.1-14.6-.3-19.8 5-3.7 3.7-5.8 8.7-5.8 14 0 5.3 2.1 10.3 5.8 14 3.8 3.8 8.7 5.8 14 5.8s10.3-2.1 14-5.8c5.2-5.2 7.1-12.7 5-19.8l26.1-26.1 11 3.1c.3.1.7 0 1-.3l14.8-14.8c.3-.1.4-.4.3-.8zm-16.1 14-11-3.1c-.3-.1-.7 0-1 .3L41 69.4c-.3.3-.4.7-.2 1 2.2 6.5.5 13.5-4.3 18.3-3.4 3.4-7.9 5.2-12.6 5.2s-9.3-1.9-12.6-5.2S6 80.9 6 76.1s1.9-9.3 5.2-12.6c3.4-3.4 7.9-5.2 12.6-5.2 1.9 0 3.9.3 5.7.9.4.1.8 0 1-.2l26.9-26.9c.3-.3.4-.6.3-1l-3.1-11 14-14 8.2 2.3-12.1 12.2c-.3.3-.4.6-.3 1l3 10.4c.1.3.4.6.7.7l10.4 3c.4.1.7 0 1-.3l12.1-12.1 2.3 8.2-14 13.9z" fill="#614bc3" class="fill-000000"></path></svg>