<!--?xml version="1.0" standalone="no"?-->
              <svg id="sw-js-blob-svg" viewBox="0 0 100 100" xmlns="http://www.w3.org/2000/svg" version="1.1">
                    <defs> 
                        <linearGradient id="sw-gradient" x1="0" x2="1" y1="1" y2="0">
                            <stop id="stop1" stop-color="rgba(255, 117, 52, 1)" offset="0%"></stop>
                            <stop id="stop2" stop-color="rgba(255, 117, 52, 1)" offset="100%"></stop>
                        </linearGradient>
                    </defs>
                <path fill="url(#sw-gradient)" d="M21.7,-33.7C29.1,-29.1,36.6,-24.6,40.8,-17.9C45,-11.2,45.9,-2.2,42.9,4.9C40,12.1,33.2,17.5,27.1,22.4C21.1,27.4,15.9,32,9.7,34.5C3.4,37.1,-3.9,37.7,-10.5,35.8C-17.1,33.8,-23.1,29.5,-29.3,24.3C-35.6,19.1,-42.2,13.1,-44.6,5.6C-47,-1.9,-45.2,-10.9,-40.9,-17.9C-36.5,-25,-29.6,-30.2,-22.4,-34.8C-15.1,-39.4,-7.6,-43.4,-0.2,-43.1C7.2,-42.9,14.4,-38.2,21.7,-33.7Z" width="100%" height="100%" transform="translate(50 50)" stroke-width="0" style="transition: all 0.3s ease 0s;" stroke="url(#sw-gradient)"></path>
              </svg>